<?xml version="1.0" encoding="UTF-8" standalone="no"?>
<!-- Created with Inkscape (http://www.inkscape.org/) -->

<svg
   width="300"
   height="300"
   viewBox="0 0 79.375 79.375"
   version="1.1"
   id="svg1"
   xmlns="http://www.w3.org/2000/svg"
   xmlns:svg="http://www.w3.org/2000/svg">
  <defs
     id="defs1" />
  <g
     id="layer1"
     transform="translate(-20.218306,-20.438326)">
    <path
       id="path10"
       style="fill:#800000;stroke:#808080;stroke-width:1.06322"
       d="m 90.181662,41.388444 -60.604352,0.0043 c 0,2.212943 -1.481519,3.631902 -3.512639,4.063504 l -0.02158,10.850643 c 2.046741,0.04733 3.562282,1.625408 3.562282,3.854622 0,2.229214 -1.578039,3.848839 -3.562282,3.937839 l 0.03118,10.520173 c 1.999037,0.142718 3.522231,2.020114 3.522231,4.233054 l 60.695724,0.01054 c 0.09863,-2.128742 1.494926,-3.716455 3.467073,-3.663485 l 0.0103,-11.216367 c -1.875025,-0.235686 -3.579073,-1.512439 -3.579073,-3.741656 0,-2.229216 1.61552,-3.741912 3.564199,-3.845028 L 93.754261,45.362239 C 91.96847,45.081704 90.380789,43.582451 90.181666,41.388427 Z M 31.793484,52.704816 H 46.04333 v 2.935872 h -2.219771 l -3.398965,-0.910595 v 14.730924 h -3.40376 V 54.638242 l -5.217278,1.397909 z m 18.60689,0.166674 h 2.916687 l 4.355128,16.254259 H 55.2337 l -1.671303,-6.236751 h -3.995396 l -1.738693,6.520937 -3.980047,-0.117991 z m 13.207107,1.532448 h 3.894676 l 2.397476,8.946953 2.294594,-8.564201 h 2.601806 l 3.725355,13.903547 H 76.04429 l -2.863444,-10.686845 -1.851408,8.517196 -2.349513,0.0295 -3.416952,-8.67236 -2.85937,10.671736 h -2.598687 z m 21.862852,0.673509 c 2.104651,0 3.573787,1.876237 3.573787,3.809405 0,1.138072 -0.131525,1.947015 -1.160468,2.367944 1.325151,0.467704 1.458361,1.158997 1.458361,2.593276 0,2.135833 -1.701223,3.537066 -3.97737,3.537066 -1.512235,0 -2.587832,-0.545713 -3.16466,-1.637009 -0.265026,-0.498886 -0.421054,-1.091073 -0.483477,-1.9953 l 1.902331,-0.11785 c 0.09354,1.652535 0.23701,1.8861 1.749236,1.8861 1.418686,0 1.775266,-0.238729 1.775266,-1.657418 0,-1.356327 -0.0784,-1.440989 -1.525694,-1.822194 l -1.195478,-0.05892 -0.31878,0.559785 0.206237,-1.97872 c 0.950986,-0.01559 1.803445,0.03993 2.177618,-0.115974 0.608,-0.265026 0.593906,-0.718917 0.593906,-1.514017 0,-1.216015 -0.34974,-1.801463 -1.565763,-1.801463 -0.857456,0 -1.307748,0.256431 -1.619549,0.895628 -0.171551,0.342972 -0.292694,0.67389 -0.308334,1.359849 h -1.813701 c 0.04676,-2.385268 1.467168,-4.310184 3.696532,-4.310184 z m -34.932782,2.460694 -0.637201,2.803253 h 3.208788 l -0.751356,-2.803253 z" />
  </g>
</svg>
